<svg id="Layer_1" data-name="Layer 1" xmlns="http://www.w3.org/2000/svg" viewBox="0 0 327.59 67.73"><defs><style>.cls-1{fill:#3c3c3b;}.cls-2{fill:#822;}.cls-3,.cls-4,.cls-5{fill:none;}.cls-4{stroke:#1d1d1b;stroke-width:2px;}.cls-4,.cls-5{stroke-miterlimit:10;}.cls-5{stroke:#822;stroke-linecap:round;stroke-width:4.2px;}</style></defs><title>MAA5-logo_new</title><path class="cls-1" d="M86.71,76.44h6v42h-6V87.84s-7,12.24-9.6,16.8l-9.6-16.8v30.6h-6v-42h6l9.6,16.8Z" transform="translate(-61.51 -64.77)"/><path class="cls-1" d="M111.25,76.44h6.06l13.14,42h-6.24L120.79,107h-13l-3.42,11.4h-6.3Zm-1.8,25.2h9.72l-4.86-16.2Z" transform="translate(-61.51 -64.77)"/><path class="cls-1" d="M146.65,76.44h6.06l13.14,42h-6.24L156.19,107h-13l-3.42,11.4h-6.3Zm-1.8,25.2h9.72l-4.86-16.2Z" transform="translate(-61.51 -64.77)"/><path class="cls-2" d="M179.81,82.89A7.39,7.39,0,0,1,172.28,90h-7.52V86.88h7.52a4,4,0,0,0,4-4V80a3.13,3.13,0,0,0-3.15-3.08h-8.4V65.53h13.65v3.15H168.26v5.07h4.9a6.64,6.64,0,0,1,6.65,6.48Z" transform="translate(-61.51 -64.77)"/><line class="cls-3" x1="155.99" y1="6.23" x2="155.99" y2="67.73"/><line class="cls-4" x1="131.49" y1="53.23" x2="131.49" y2="10.96"/><path class="cls-1" d="M204.84,95.6V94.2h5.88a4.2,4.2,0,0,0,4.2-4.2V87.76a3.37,3.37,0,0,0-3.36-3.36H206V83h5.71a2.77,2.77,0,0,0,2.69-2.8,2.81,2.81,0,0,0-2.8-2.8h-6.72V76h7a4.21,4.21,0,0,1,2.3,7.73A5.07,5.07,0,0,1,216.6,88V90a5.79,5.79,0,0,1-5.88,5.63Z" transform="translate(-61.51 -64.77)"/><path class="cls-1" d="M219.4,76h7.28a5.06,5.06,0,0,1,5,5V88.6a7,7,0,0,1-7,7H219.4Zm1.68,1.4V94.2h3.64A5.32,5.32,0,0,0,230,88.88V80.73a3.37,3.37,0,0,0-3.36-3.36Z" transform="translate(-61.51 -64.77)"/><path class="cls-1" d="M209.4,118.6H208l-3.56-11.5h1.45l2.8,9.22,2.81-9.22H213Z" transform="translate(-61.51 -64.77)"/><path class="cls-1" d="M214.81,102.5h1.38v2.3h-1.38Zm0,4.6h1.38v11.5h-1.38Z" transform="translate(-61.51 -64.77)"/><path class="cls-1" d="M219,107.1h.69l.69,1.38a3.68,3.68,0,0,1,3-1.38h2.53v1.15h-2.53a3,3,0,0,0-3,2.88v7.47H219Z" transform="translate(-61.51 -64.77)"/><path class="cls-1" d="M232.29,117.45v1.15H231a3,3,0,0,1-3.1-3V102.5h1.38v4.6h3v1.15h-3v7.36a1.79,1.79,0,0,0,1.72,1.84Z" transform="translate(-61.51 -64.77)"/><path class="cls-1" d="M241.26,107.1h1.38v11.5H242l-.69-1.38a3.68,3.68,0,0,1-3,1.38h-.92a3,3,0,0,1-3-3V107.1h1.38v8.74a1.6,1.6,0,0,0,1.61,1.61h.92a3,3,0,0,0,3-3Z" transform="translate(-61.51 -64.77)"/><path class="cls-1" d="M245.86,108.25V107.1h4.37a3,3,0,0,1,3,3v8.51h-5.29a2.94,2.94,0,0,1-3-3,3.18,3.18,0,0,1,2.41-2.92l4.49-1.1v-1.73a1.61,1.61,0,0,0-1.61-1.61Zm2.07,9.2h3.91v-4.67l-4.19,1a1.79,1.79,0,0,0-1.33,1.79A1.71,1.71,0,0,0,247.93,117.45Z" transform="translate(-61.51 -64.77)"/><path class="cls-1" d="M256,118.6V102.5h1.38v16.1Z" transform="translate(-61.51 -64.77)"/><path class="cls-1" d="M273.23,119.52a4.37,4.37,0,0,1-4.37,4.37h-2.53v-1.15h2.53a3,3,0,0,0,3-3V118.6h-2.76a4.15,4.15,0,0,1-4.14-4.14v-4.37a3,3,0,0,1,3-3h5.29Zm-4.14-2.07h2.76v-9.2h-3.91a1.6,1.6,0,0,0-1.61,1.61v4.83A2.77,2.77,0,0,0,269.09,117.45Z" transform="translate(-61.51 -64.77)"/><path class="cls-1" d="M276.45,108.25V107.1h4.37a3,3,0,0,1,3,3v8.51h-5.29a2.94,2.94,0,0,1-3-3,3.18,3.18,0,0,1,2.41-2.92l4.49-1.1v-1.73a1.61,1.61,0,0,0-1.61-1.61Zm2.07,9.2h3.91v-4.67l-4.19,1a1.79,1.79,0,0,0-1.33,1.79A1.7,1.7,0,0,0,278.52,117.45Z" transform="translate(-61.51 -64.77)"/><path class="cls-1" d="M286.57,118.6V102.5H288v16.1Z" transform="translate(-61.51 -64.77)"/><path class="cls-1" d="M290.71,118.6V102.5h1.38v16.1Z" transform="translate(-61.51 -64.77)"/><path class="cls-1" d="M302.43,118.6H299a4.36,4.36,0,0,1-4.37-4.37v-4.14a3,3,0,0,1,3.1-3h2.07a3,3,0,0,1,3.1,3,3.17,3.17,0,0,1-2.41,2.92L296,114.12v.34a3,3,0,0,0,3,3h3.44ZM296,112.92l4.18-1a1.86,1.86,0,0,0-.39-3.64h-2.07a1.79,1.79,0,0,0-1.72,1.84Z" transform="translate(-61.51 -64.77)"/><path class="cls-1" d="M305.2,107.1h.69l.69,1.38a3.67,3.67,0,0,1,3-1.38h2.52v1.15h-2.52a3,3,0,0,0-3,2.88v7.47H305.2Z" transform="translate(-61.51 -64.77)"/><path class="cls-1" d="M321.06,117.22a3.66,3.66,0,0,1-3,1.38h-.92a3,3,0,0,1-3-3V107.1h1.38v8.74a1.6,1.6,0,0,0,1.61,1.61h.92a3,3,0,0,0,3-3V107.1h1.38v12.42a4.37,4.37,0,0,1-4.36,4.37h-2.53v-1.15h2.53a3,3,0,0,0,3-3Z" transform="translate(-61.51 -64.77)"/><path class="cls-5" d="M243.19,68.67s45.31-3.34,68.72-.92C356.1,72.31,374,116.5,374,116.5" transform="translate(-61.51 -64.77)"/><path class="cls-5" d="M246.7,88.22s47.23-3.79,65.17.5C334.93,94.24,348.5,118,348.5,118" transform="translate(-61.51 -64.77)"/><path class="cls-5" d="M345,79.5A40.87,40.87,0,0,1,360.33,70c15.84-5.68,26.67-.67,26.67-.67" transform="translate(-61.51 -64.77)"/><path class="cls-5" d="M356,89.67c1.86-2.25,10.08-8.34,18-8.34,10.67,0,13,1.67,13,1.67" transform="translate(-61.51 -64.77)"/></svg>