{
    "asset" : {
        "generator" : "Khronos glTF Blender I/O v1.2.75",
        "version" : "2.0"
    },
    "scene" : 0,
    "scenes" : [
        {
            "name" : "Scene",
            "nodes" : [
                9
            ]
        }
    ],
    "nodes" : [
        {
            "mesh" : 0,
            "name" : "05105x_Illumo_Lightstar_Kraska_White_Bump_0",
            "translation" : [
                6.275667190551758,
                4.38421630859375,
                -0.036773681640625
            ]
        },
        {
            "mesh" : 1,
            "name" : "05105x_Illumo_Lightstar_Metal_chrom_0",
            "translation" : [
                6.275557518005371,
                4.3841552734375,
                -0.036865234375
            ]
        },
        {
            "mesh" : 2,
            "name" : "05105x_Illumo_Lightstar_Metall_Steel_simple_0",
            "translation" : [
                6.2755889892578125,
                4.38421630859375,
                -0.03680419921875
            ]
        },
        {
            "mesh" : 3,
            "name" : "05105x_Illumo_Lightstar_Plastik_Mate_White_0",
            "translation" : [
                6.275496482849121,
                4.38421630859375,
                -0.03680419921875
            ]
        },
        {
            "mesh" : 4,
            "name" : "05105x_Illumo_Lightstar_Spiral_0",
            "translation" : [
                6.27556037902832,
                4.38427734375,
                -0.036865234375
            ]
        },
        {
            "children" : [
                0,
                1,
                2,
                3,
                4
            ],
            "name" : "05105x_Illumo_Lightstar",
            "rotation" : [
                -0.7071068286895752,
                0,
                0,
                0.7071068286895752
            ],
            "translation" : [
                2.038471221923828,
                0.03668975830078125,
                39.782230377197266
            ]
        },
        {
            "children" : [
                5
            ],
            "name" : "RootNode.001"
        },
        {
            "children" : [
                6
            ],
            "name" : "f0f8153299d24485af1242cd31f6f420.fbx",
            "rotation" : [
                0.7071068286895752,
                0,
                0,
                0.7071068286895752
            ]
        },
        {
            "children" : [
                7
            ],
            "name" : "RootNode (model correction matrix).001",
            "rotation" : [
                0,
                0,
                0.7071068286895752,
                0.7071068286895752
            ],
            "translation" : [
                -35.397911071777344,
                -8.314205169677734,
                0
            ]
        },
        {
            "children" : [
                8
            ],
            "name" : "RootNode (gltf orientation matrix).001",
            "rotation" : [
                -0.7071067690849304,
                0,
                0,
                0.7071070075035095
            ],
            "scale" : [
                0.0010000000474974513,
                0.0010000000474974513,
                0.0010000000474974513
            ]
        }
    ],
    "materials" : [
        {
            "doubleSided" : true,
            "emissiveFactor" : [
                0,
                0,
                0
            ],
            "name" : "Kraska_White_Bump",
            "pbrMetallicRoughness" : {
                "baseColorFactor" : [
                    0.4000000059604645,
                    0.4000000059604645,
                    0.4000000059604645,
                    1
                ],
                "metallicFactor" : 0,
                "roughnessFactor" : 0.6000000238418579
            }
        },
        {
            "doubleSided" : true,
            "emissiveFactor" : [
                0,
                0,
                0
            ],
            "name" : "Metal_chrom",
            "pbrMetallicRoughness" : {
                "baseColorFactor" : [
                    1,
                    1,
                    1,
                    1
                ],
                "metallicFactor" : 1,
                "roughnessFactor" : 0.6000000238418579
            }
        },
        {
            "doubleSided" : true,
            "emissiveFactor" : [
                1,
                1,
                1
            ],
            "name" : "Metall_Steel_simple",
            "pbrMetallicRoughness" : {
                "baseColorFactor" : [
                    1,
                    1,
                    1,
                    1
                ],
                "metallicFactor" : 1,
                "roughnessFactor" : 0.20903201401233673
            }
        },
        {
            "doubleSided" : true,
            "emissiveFactor" : [
                0,
                0,
                0
            ],
            "name" : "Plastik_Mate_White",
            "pbrMetallicRoughness" : {
                "baseColorFactor" : [
                    1,
                    1,
                    1,
                    1
                ],
                "metallicFactor" : 0,
                "roughnessFactor" : 0.6000000238418579
            }
        },
        {
            "doubleSided" : true,
            "emissiveFactor" : [
                1,
                1,
                1
            ],
            "name" : "Spiral",
            "pbrMetallicRoughness" : {
                "baseColorFactor" : [
                    1,
                    1,
                    1,
                    1
                ],
                "metallicFactor" : 0,
                "roughnessFactor" : 0.6000000238418579
            }
        }
    ],
    "meshes" : [
        {
            "name" : "05105x_Illumo_Lightstar_Kraska_White_Bump_0",
            "primitives" : [
                {
                    "attributes" : {
                        "POSITION" : 0,
                        "NORMAL" : 1,
                        "TEXCOORD_0" : 2
                    },
                    "indices" : 3,
                    "material" : 0
                }
            ]
        },
        {
            "name" : "05105x_Illumo_Lightstar_Metal_chrom_0",
            "primitives" : [
                {
                    "attributes" : {
                        "POSITION" : 4,
                        "NORMAL" : 5,
                        "TEXCOORD_0" : 6
                    },
                    "indices" : 7,
                    "material" : 1
                }
            ]
        },
        {
            "name" : "05105x_Illumo_Lightstar_Metall_Steel_simple_0",
            "primitives" : [
                {
                    "attributes" : {
                        "POSITION" : 8,
                        "NORMAL" : 9,
                        "TEXCOORD_0" : 10
                    },
                    "indices" : 11,
                    "material" : 2
                }
            ]
        },
        {
            "name" : "05105x_Illumo_Lightstar_Plastik_Mate_White_0",
            "primitives" : [
                {
                    "attributes" : {
                        "POSITION" : 12,
                        "NORMAL" : 13,
                        "TEXCOORD_0" : 14
                    },
                    "indices" : 15,
                    "material" : 3
                }
            ]
        },
        {
            "name" : "05105x_Illumo_Lightstar_Spiral_0",
            "primitives" : [
                {
                    "attributes" : {
                        "POSITION" : 16,
                        "NORMAL" : 17,
                        "TEXCOORD_0" : 18
                    },
                    "indices" : 19,
                    "material" : 4
                }
            ]
        }
    ],
    "accessors" : [
        {
            "bufferView" : 0,
            "componentType" : 5126,
            "count" : 484,
            "max" : [
                24.981327056884766,
                87.98175048828125,
                180.03677368164062
            ],
            "min" : [
                -68.69364929199219,
                -60.89788818359375,
                3.0517578125e-05
            ],
            "type" : "VEC3"
        },
        {
            "bufferView" : 1,
            "componentType" : 5126,
            "count" : 484,
            "type" : "VEC3"
        },
        {
            "bufferView" : 2,
            "componentType" : 5126,
            "count" : 484,
            "type" : "VEC2"
        },
        {
            "bufferView" : 3,
            "componentType" : 5123,
            "count" : 702,
            "type" : "SCALAR"
        },
        {
            "bufferView" : 4,
            "componentType" : 5126,
            "count" : 333,
            "max" : [
                -5.065962791442871,
                42.71588134765625,
                176.23855590820312
            ],
            "min" : [
                -23.3861083984375,
                -34.385009765625,
                40.49267578125
            ],
            "type" : "VEC3"
        },
        {
            "bufferView" : 5,
            "componentType" : 5126,
            "count" : 333,
            "type" : "VEC3"
        },
        {
            "bufferView" : 6,
            "componentType" : 5126,
            "count" : 333,
            "type" : "VEC2"
        },
        {
            "bufferView" : 7,
            "componentType" : 5123,
            "count" : 603,
            "type" : "SCALAR"
        },
        {
            "bufferView" : 8,
            "componentType" : 5126,
            "count" : 249,
            "max" : [
                -5.787206649780273,
                67.27789306640625,
                58.610809326171875
            ],
            "min" : [
                -46.65888977050781,
                25.11529541015625,
                17.51495361328125
            ],
            "type" : "VEC3"
        },
        {
            "bufferView" : 9,
            "componentType" : 5126,
            "count" : 249,
            "type" : "VEC3"
        },
        {
            "bufferView" : 10,
            "componentType" : 5126,
            "count" : 249,
            "type" : "VEC2"
        },
        {
            "bufferView" : 11,
            "componentType" : 5123,
            "count" : 561,
            "type" : "SCALAR"
        },
        {
            "bufferView" : 12,
            "componentType" : 5126,
            "count" : 60,
            "max" : [
                -8.913464546203613,
                39.165283203125,
                66.30221557617188
            ],
            "min" : [
                -28.880882263183594,
                18.734375,
                46.022857666015625
            ],
            "type" : "VEC3"
        },
        {
            "bufferView" : 13,
            "componentType" : 5126,
            "count" : 60,
            "type" : "VEC3"
        },
        {
            "bufferView" : 14,
            "componentType" : 5126,
            "count" : 60,
            "type" : "VEC2"
        },
        {
            "bufferView" : 15,
            "componentType" : 5123,
            "count" : 144,
            "type" : "SCALAR"
        },
        {
            "bufferView" : 16,
            "componentType" : 5126,
            "count" : 47,
            "max" : [
                -20.775495529174805,
                42.76220703125,
                47.239532470703125
            ],
            "min" : [
                -23.815296173095703,
                37.65142822265625,
                42.035491943359375
            ],
            "type" : "VEC3"
        },
        {
            "bufferView" : 17,
            "componentType" : 5126,
            "count" : 47,
            "type" : "VEC3"
        },
        {
            "bufferView" : 18,
            "componentType" : 5126,
            "count" : 47,
            "type" : "VEC2"
        },
        {
            "bufferView" : 19,
            "componentType" : 5123,
            "count" : 117,
            "type" : "SCALAR"
        }
    ],
    "bufferViews" : [
        {
            "buffer" : 0,
            "byteLength" : 5808,
            "byteOffset" : 0
        },
        {
            "buffer" : 0,
            "byteLength" : 5808,
            "byteOffset" : 5808
        },
        {
            "buffer" : 0,
            "byteLength" : 3872,
            "byteOffset" : 11616
        },
        {
            "buffer" : 0,
            "byteLength" : 1404,
            "byteOffset" : 15488
        },
        {
            "buffer" : 0,
            "byteLength" : 3996,
            "byteOffset" : 16892
        },
        {
            "buffer" : 0,
            "byteLength" : 3996,
            "byteOffset" : 20888
        },
        {
            "buffer" : 0,
            "byteLength" : 2664,
            "byteOffset" : 24884
        },
        {
            "buffer" : 0,
            "byteLength" : 1206,
            "byteOffset" : 27548
        },
        {
            "buffer" : 0,
            "byteLength" : 2988,
            "byteOffset" : 28756
        },
        {
            "buffer" : 0,
            "byteLength" : 2988,
            "byteOffset" : 31744
        },
        {
            "buffer" : 0,
            "byteLength" : 1992,
            "byteOffset" : 34732
        },
        {
            "buffer" : 0,
            "byteLength" : 1122,
            "byteOffset" : 36724
        },
        {
            "buffer" : 0,
            "byteLength" : 720,
            "byteOffset" : 37848
        },
        {
            "buffer" : 0,
            "byteLength" : 720,
            "byteOffset" : 38568
        },
        {
            "buffer" : 0,
            "byteLength" : 480,
            "byteOffset" : 39288
        },
        {
            "buffer" : 0,
            "byteLength" : 288,
            "byteOffset" : 39768
        },
        {
            "buffer" : 0,
            "byteLength" : 564,
            "byteOffset" : 40056
        },
        {
            "buffer" : 0,
            "byteLength" : 564,
            "byteOffset" : 40620
        },
        {
            "buffer" : 0,
            "byteLength" : 376,
            "byteOffset" : 41184
        },
        {
            "buffer" : 0,
            "byteLength" : 234,
            "byteOffset" : 41560
        }
    ],
    "buffers" : [
        {
            "byteLength" : 41796,
            "uri" : "data:application/octet-stream;base64,"
        }
    ]
}
